<svg width="1280" height="720" xmlns="http://www.w3.org/2000/svg" xmlns:xlink="http://www.w3.org/1999/xlink" overflow="hidden"><defs><clipPath id="clip0"><path d="M0 0 1280 0 1280 720 0 720Z" fill-rule="evenodd" clip-rule="evenodd"/></clipPath><linearGradient x1="286.5" y1="99.5001" x2="286.5" y2="164.5" gradientUnits="userSpaceOnUse" spreadMethod="reflect" id="fill1"><stop offset="0" stop-color="#F7BDA4"/><stop offset="0.5" stop-color="#F5B195"/><stop offset="1" stop-color="#F8A581"/></linearGradient><linearGradient x1="363.5" y1="568.5" x2="363.5" y2="633.5" gradientUnits="userSpaceOnUse" spreadMethod="reflect" id="fill2"><stop offset="0" stop-color="#F7BDA4"/><stop offset="0.5" stop-color="#F5B195"/><stop offset="1" stop-color="#F8A581"/></linearGradient><linearGradient x1="612" y1="100.5" x2="612" y2="164.5" gradientUnits="userSpaceOnUse" spreadMethod="reflect" id="fill3"><stop offset="0" stop-color="#F7BDA4"/><stop offset="0.5" stop-color="#F5B195"/><stop offset="1" stop-color="#F8A581"/></linearGradient><linearGradient x1="908.5" y1="566.5" x2="908.5" y2="630.5" gradientUnits="userSpaceOnUse" spreadMethod="reflect" id="fill4"><stop offset="0" stop-color="#F7BDA4"/><stop offset="0.5" stop-color="#F5B195"/><stop offset="1" stop-color="#F8A581"/></linearGradient></defs><g clip-path="url(#clip0)"><rect x="0" y="0" width="1280" height="720" fill="#FFFFFF"/><path d="M0.172432-1.99255 6.83312-1.41615 13.5744 0.285527 20.2033 3.08008 26.6074 6.76727 32.7137 11.3952 38.6019 16.7074 44.1633 22.8441 49.3219 29.595 54.0935 36.9113 58.3536 44.7322 62.099 52.9847 65.3384 61.6231 67.8806 70.5207 69.786 79.6665 70.9947 88.9548 71.3733 98.2309 71.7483 107.418 71.7333 107.242 72.9208 116.367 72.8955 116.217 74.7705 125.217 74.7355 125.076 77.2355 133.826 77.1897 133.685 80.3147 142.185 80.2534 142.037 84.0034 150.162 83.9438 150.043 88.1313 157.731 88.0569 157.605 92.6819 164.793 92.5891 164.661 97.6516 171.286 97.5445 171.157 102.982 177.157 102.84 177.015 108.59 182.202 108.45 182.087 114.45 186.587 114.248 186.454 120.435 190.017 120.221 189.91 126.533 192.597 126.131 192.474 129.196 193.068 128.435 196.995 125.161 196.361 118.544 193.543 112.147 189.86 105.978 185.233 100.086 179.918 94.5242 173.781 89.3618 167.025 84.6536 159.708 80.3994 151.898 76.588 143.64 73.4098 134.996 70.8694 126.104 68.964 116.958 67.7553 107.67 67.3767 98.3941 67.0017 89.2066 67.0167 89.3831 65.8292 80.2581 65.8545 80.4079 63.9795 71.4079 64.0145 71.5494 61.5145 62.7994 61.5648 62.9522 58.3773 54.4522 58.4288 54.5765 54.7413 46.4515 54.8062 46.5817 50.6187 38.8942 50.6998 39.03 46.0123 31.8425 46.0984 31.9643 41.0359 25.3393 41.143 25.468 35.7055 19.468 35.8478 19.61 30.0978 14.4225 30.2295 14.5314 24.292 10.0314 24.5021 10.1707 18.3146 6.60824 18.5356 6.71793 12.1606 4.03043 12.448 4.12667 6.0105 2.50167 6.32757 2.55505-0.172432 1.99255ZM127.797 188.79 138.687 196.625 125.885 200.636Z" fill="#FF0000" transform="matrix(1 0 0 -1 411 600.582)"/><path d="M124.5 348.333C124.5 332.961 154.721 320.5 192 320.5 229.279 320.5 259.5 332.961 259.5 348.333L259.5 459.667C259.5 475.039 229.279 487.5 192 487.5 154.721 487.5 124.5 475.039 124.5 459.667Z" fill="#262626" fill-rule="evenodd"/><path d="M259.5 348.333C259.5 363.705 229.279 376.167 192 376.167 154.721 376.167 124.5 363.705 124.5 348.333" stroke="#AFABAB" stroke-miterlimit="8" fill="none" fill-rule="evenodd"/><path d="M124.5 348.333C124.5 332.961 154.721 320.5 192 320.5 229.279 320.5 259.5 332.961 259.5 348.333L259.5 459.667C259.5 475.039 229.279 487.5 192 487.5 154.721 487.5 124.5 475.039 124.5 459.667Z" stroke="#AFABAB" stroke-miterlimit="8" fill="none" fill-rule="evenodd"/><text fill="#FFFFFF" font-family="Calibri,Calibri_MSFontService,sans-serif" font-weight="400" font-size="19" transform="translate(154.453 401)">Echo <tspan x="40.58" y="0">data</tspan><tspan font-style="italic" x="-8.07333" y="23">BeamGrou</tspan><tspan font-style="italic" x="72.76" y="23">p</tspan></text><rect x="238.5" y="99.5001" width="96" height="65" stroke="#ED7D31" stroke-miterlimit="8" fill="url(#fill1)"/><text font-family="Calibri,Calibri_MSFontService,sans-serif" font-weight="400" font-size="19" transform="translate(261.036 126)">Detect<tspan x="-3.09332" y="23">bottom</tspan></text><path d="M332.5 358.333C332.5 344.066 362.497 332.5 399.5 332.5 436.503 332.5 466.5 344.066 466.5 358.333L466.5 461.667C466.5 475.934 436.503 487.5 399.5 487.5 362.497 487.5 332.5 475.934 332.5 461.667Z" fill="#262626" fill-rule="evenodd"/><path d="M466.5 358.333C466.5 372.601 436.503 384.167 399.5 384.167 362.497 384.167 332.5 372.601 332.5 358.333" stroke="#AFABAB" stroke-miterlimit="8" fill="none" fill-rule="evenodd"/><path d="M332.5 358.333C332.5 344.066 362.497 332.5 399.5 332.5 436.503 332.5 466.5 344.066 466.5 358.333L466.5 461.667C466.5 475.934 436.503 487.5 399.5 487.5 362.497 487.5 332.5 475.934 332.5 461.667Z" stroke="#AFABAB" stroke-miterlimit="8" fill="none" fill-rule="evenodd"/><text fill="#FFFFFF" font-family="Calibri,Calibri_MSFontService,sans-serif" font-weight="400" font-size="19" transform="translate(351.696 407)">Bottom data<tspan font-style="italic" x="2.16" y="22">BeamGroup</tspan></text><rect x="315.5" y="568.5" width="96" height="65" stroke="#ED7D31" stroke-miterlimit="8" fill="url(#fill2)"/><text font-family="Calibri,Calibri_MSFontService,sans-serif" font-weight="400" font-size="19" transform="translate(335.719 595)">Modify <tspan x="-10.2533" y="23">echo data</tspan></text><rect x="556.5" y="100.5" width="111" height="64" stroke="#ED7D31" stroke-miterlimit="8" fill="url(#fill3)"/><text font-family="Calibri,Calibri_MSFontService,sans-serif" font-weight="400" font-size="19" transform="translate(574.082 138)">Scrutinise</text><rect x="860.5" y="566.5" width="96" height="64" stroke="#ED7D31" stroke-miterlimit="8" fill="url(#fill4)"/><text font-family="Calibri,Calibri_MSFontService,sans-serif" font-weight="400" font-size="19" transform="translate(873.462 604)">Integrate</text><path d="M988.5 345C988.5 331.469 1018.72 320.5 1056 320.5 1093.28 320.5 1123.5 331.469 1123.5 345L1123.5 443C1123.5 456.531 1093.28 467.5 1056 467.5 1018.72 467.5 988.5 456.531 988.5 443Z" fill="#262626" fill-rule="evenodd"/><path d="M1123.5 345C1123.5 358.531 1093.28 369.5 1056 369.5 1018.72 369.5 988.5 358.531 988.5 345" stroke="#AFABAB" stroke-miterlimit="8" fill="none" fill-rule="evenodd"/><path d="M988.5 345C988.5 331.469 1018.72 320.5 1056 320.5 1093.28 320.5 1123.5 331.469 1123.5 345L1123.5 443C1123.5 456.531 1093.28 467.5 1056 467.5 1018.72 467.5 988.5 456.531 988.5 443Z" stroke="#AFABAB" stroke-miterlimit="8" fill="none" fill-rule="evenodd"/><text fill="#FFFFFF" font-family="Calibri,Calibri_MSFontService,sans-serif" font-weight="400" font-size="19" transform="translate(1007.67 401)">Integral data<tspan font-style="italic" x="8.4267" y="22">GridGroup</tspan></text><path d="M550.5 355.833C550.5 342.394 580.497 331.5 617.5 331.5 654.503 331.5 684.5 342.394 684.5 355.833L684.5 453.167C684.5 466.606 654.503 477.5 617.5 477.5 580.497 477.5 550.5 466.606 550.5 453.167Z" fill="#262626" fill-rule="evenodd"/><path d="M684.5 355.833C684.5 369.272 654.503 380.167 617.5 380.167 580.497 380.167 550.5 369.272 550.5 355.833" stroke="#AFABAB" stroke-miterlimit="8" fill="none" fill-rule="evenodd"/><path d="M550.5 355.833C550.5 342.394 580.497 331.5 617.5 331.5 654.503 331.5 684.5 342.394 684.5 355.833L684.5 453.167C684.5 466.606 654.503 477.5 617.5 477.5 580.497 477.5 550.5 466.606 550.5 453.167Z" stroke="#AFABAB" stroke-miterlimit="8" fill="none" fill-rule="evenodd"/><text fill="#FFFFFF" font-family="Calibri,Calibri_MSFontService,sans-serif" font-weight="400" font-size="19" transform="translate(579.494 400)">Echo data<tspan font-style="italic" x="-8.07996" y="23">BeamGroup</tspan><tspan font-style="italic" x="-2.41333" y="45">GridGrou</tspan><tspan font-style="italic" x="67.0867" y="45">p</tspan></text><path d="M819.5 355C819.5 341.469 849.497 330.5 886.5 330.5 923.503 330.5 953.5 341.469 953.5 355L953.5 453C953.5 466.531 923.503 477.5 886.5 477.5 849.497 477.5 819.5 466.531 819.5 453Z" fill="#262626" fill-rule="evenodd"/><path d="M953.5 355C953.5 368.531 923.503 379.5 886.5 379.5 849.497 379.5 819.5 368.531 819.5 355" stroke="#AFABAB" stroke-miterlimit="8" fill="none" fill-rule="evenodd"/><path d="M819.5 355C819.5 341.469 849.497 330.5 886.5 330.5 923.503 330.5 953.5 341.469 953.5 355L953.5 453C953.5 466.531 923.503 477.5 886.5 477.5 849.497 477.5 819.5 466.531 819.5 453Z" stroke="#AFABAB" stroke-miterlimit="8" fill="none" fill-rule="evenodd"/><text fill="#FFFFFF" font-family="Calibri,Calibri_MSFontService,sans-serif" font-weight="400" font-size="19" transform="translate(836.378 399)">Scrutiny data<tspan font-style="italic" x="4.38" y="23">BeamGroup</tspan><tspan font-style="italic" x="10.0466" y="45">GridGroup</tspan></text><path d="M667.105 130.003 670.772 130.196 674.595 130.799 681.967 133.213 689.181 136.982 696.22 142.084 702.881 148.426 709.317 155.753 715.355 164.144 720.995 173.395 726.183 183.454 730.861 194.201 734.901 205.501 738.435 217.304 741.213 229.552 743.296 242.049 744.559 254.804 744.999 267.556 745.436 280.244 745.428 280.115 746.678 292.74 746.66 292.609 748.723 304.984 748.698 304.861 751.511 316.986 751.481 316.873 754.919 328.561 754.883 328.452 758.883 339.639 758.834 339.514 763.459 350.139 763.403 350.021 768.528 359.958 768.458 359.834 774.02 368.959 773.932 368.826 779.869 377.013 779.758 376.874 786.071 384.124 785.935 383.982 792.497 390.17 792.306 390.011 799.056 394.948 798.801 394.79 805.739 398.415 805.328 398.255 809.697 399.422 808.665 403.286 804.083 402.063 796.816 398.265 789.844 393.166 783.119 386.825 776.683 379.434 770.646 371.109 765.005 361.855 759.817 351.796 755.139 341.049 751.097 329.744 747.627 317.946 744.788 305.703 742.704 293.201 741.441 280.446 741.001 267.694 740.564 255.006 740.572 255.135 739.322 242.51 739.34 242.641 737.277 230.266 737.3 230.38 734.55 218.255 734.584 218.386 731.084 206.699 731.117 206.798 727.117 195.611 727.166 195.736 722.541 185.111 722.597 185.229 717.472 175.292 717.542 175.416 711.98 166.291 712.064 166.418 706.127 158.168 706.247 158.32 699.935 151.132 700.059 151.261 693.559 145.074 693.764 145.244 686.951 140.307 687.199 140.46 680.261 136.835 680.565 136.963 673.503 134.651 673.813 134.726 670.251 134.163 670.457 134.185 666.895 133.997ZM808.355 395.084 819 403.25 806.08 406.866Z" fill="#FF0000"/><path d="M0.175788-1.99226 2.50695-1.78657 4.8944-1.0631 7.21229-0.00951238 9.60552 1.53905 13.9094 5.51189 18.0846 10.7961 21.9997 17.2785 25.8207 24.793 29.3067 33.3497 32.6529 42.7569 35.6806 53.0386 38.3881 63.9314 40.7779 75.5033 42.8528 87.5753 44.4878 100.027 45.6821 112.786 46.4364 125.735 46.6871 138.774 46.9371 151.774 46.9341 151.696 47.6841 164.571 47.6788 164.501 48.8663 177.189 48.8567 177.105 50.5442 189.48 50.5353 189.421 52.5353 201.421 52.5207 201.343 54.8957 212.781 54.8765 212.697 57.6265 223.572 57.6051 223.494 60.6051 233.619 60.5772 233.532 63.8272 242.907 63.7828 242.791 67.2828 251.166 67.2294 251.049 70.9169 258.487 70.8248 258.321 74.6998 264.571 74.5787 264.397 78.5162 269.46 78.081 269.047 81.5626 271.473 79.2755 274.755 75.5451 272.155 71.3561 266.769 67.3752 260.348 63.617 252.768 60.0682 244.276 56.7829 234.799 53.7584 224.592 50.988 213.636 48.5962 202.118 46.5848 190.05 44.8876 177.603 43.6929 164.839 42.9386 151.89 42.6879 138.851 42.4379 125.851 42.4409 125.929 41.6909 113.054 41.6962 113.124 40.5087 100.436 40.517 100.51 38.892 88.1354 38.9039 88.2138 36.8414 76.2138 36.8538 76.2795 34.4788 64.7795 34.4966 64.8574 31.8091 54.0449 31.8315 54.1275 28.8315 43.94 28.8657 44.0453 25.5532 34.7328 25.5853 34.8171 22.1478 26.3796 22.2172 26.5315 18.4672 19.1565 18.538 19.284 14.7255 12.9715 14.8682 13.1774 10.8682 8.11492 11.0809 8.34461 7.01844 4.59461 7.2885 4.80414 5.1635 3.42914 5.42239 3.57073 3.35989 2.63323 3.60749 2.72655 1.54499 2.10155 1.94921 2.17976-0.175788 1.99226ZM81.297 266.851 89.375 277.562 75.9586 277.598Z" fill="#FF0000" transform="matrix(1 0 0 -1 466 409.509)"/><path d="M0.00806445-1.99998 15.5165-1.93745 30.5303-1.74978 44.6091-1.49949 51.1202-1.31167 57.1868-1.12404 62.8203-0.936265 67.9066-0.747888 72.31-0.496264 76.1485-0.244559 79.1935 0.00919332 81.5397 0.269877 83.2639 0.58337 84.0194 0.961145 84.5194 1.21115 83.9828 1.03226 85.3578 1.28226 85.2209 1.26223 87.4709 1.51223 87.4161 1.50691 90.4161 1.75691 90.383 1.75443 94.133 2.00443 94.1125 2.00317 98.55 2.25317 98.5115 2.25137 103.574 2.43887 103.567 2.43864 109.13 2.62614 115.249 2.81344 121.745 3.00083 121.723 3.00032 135.723 3.25032 135.712 3.25016 150.712 3.43766 150.696 3.43752 156.196 3.45969 156.179 7.45966 150.671 7.43745 135.657 7.24978 121.641 6.99948 115.126 6.81156 108.995 6.62386 103.429 6.43625 98.3442 6.24792 93.8772 5.99626 90.1004 5.74447 87.0565 5.49081 84.7103 5.23012 82.9861 4.91663 82.2306 4.53885 81.7306 4.28885 82.2672 4.46774 80.8922 4.21774 81.0291 4.23777 78.7791 3.98777 78.8339 3.99309 75.8339 3.74309 75.8691 3.74571 72.0566 3.49571 72.0734 3.49674 67.6984 3.24674 67.7385 3.24863 62.676 3.06113 62.6834 3.06139 57.0632 2.87404 51.0048 2.68667 44.5048 2.49917 44.5269 2.49968 30.4644 2.24968 30.475 2.24984 15.475 2.06234 15.4919 2.06248-0.00806445 1.99998ZM154.212-0.548338 166.187 5.5 154.163 11.4516Z" fill="#FF0000" transform="matrix(-4.37114e-08 -1 -1 4.37114e-08 616.498 330.189)"/><path d="M258.424 401.167 260.674 400.73 260.013 400.987 262.263 399.612 261.891 399.904 264.079 397.716 263.873 397.958 265.998 395.021 265.873 395.217 267.935 391.529 267.866 391.664 269.866 387.352 269.814 387.475 271.689 382.6 271.652 382.705 273.402 377.268 273.377 377.353 275.002 371.415 274.981 371.499 276.418 365.187 276.398 365.289 278.773 351.601 278.754 351.739 280.254 337.114 280.245 337.244 280.807 322.181 280.806 322.305 280.619 314.743 280.624 314.843 280.061 307.343 280.078 307.489 277.89 292.864 277.928 293.055 274.491 279.368 274.53 279.502 272.467 273.189 272.505 273.294 270.192 267.357 270.246 267.483 267.684 262.046 267.742 262.159 265.054 257.284 265.13 257.411 262.318 253.098 262.442 253.268 259.442 249.58 259.609 249.762 256.546 246.824 256.784 247.019 253.659 244.832 254.013 245.03 250.826 243.655 251.351 243.8 248.101 243.363 248.173 243.371 244.803 243.041 241.216 242.006 237.822 240.377 234.543 238.236 231.44 235.595 228.43 232.519 225.631 229.004 223.023 225.158 218.536 216.568 215.007 207.007 212.767 196.831 212.185 191.526 211.991 186.175 212.564 175.677 214.093 165.484 216.518 155.976 219.647 147.419 221.464 143.59 223.414 140.08 225.634 136.82 228.275 134.703 230.777 137.824 228.369 139.754 228.771 139.319 226.771 142.256 226.866 142.102 224.991 145.477 225.05 145.363 223.3 149.051 223.372 148.88 220.309 157.255 220.369 157.062 217.994 166.375 218.034 166.177 216.534 176.177 216.553 175.99 215.99 186.302 215.992 186.121 216.179 191.308 216.169 191.163 216.731 196.288 216.696 196.076 218.884 206.013 218.807 205.751 222.244 215.063 222.141 214.83 226.516 223.205 226.399 223.008 228.899 226.696 228.808 226.572 231.495 229.947 231.36 229.794 234.235 232.732 234.102 232.608 237.039 235.108 236.837 234.956 239.899 236.956 239.671 236.828 242.796 238.328 242.485 238.209 245.735 239.147 245.376 239.078 248.599 239.394 252.158 239.873 255.785 241.438 259.204 243.831 262.467 246.96 265.611 250.825 268.521 255.288 271.275 260.283 273.894 265.841 276.252 271.894 278.353 278.326 281.832 292.176 284.045 306.97 284.616 314.594 284.807 322.268 284.239 337.458 282.726 352.217 280.33 366.024 278.871 372.429 277.223 378.451 275.442 383.984 273.523 388.974 271.463 393.416 269.307 397.271 267.02 400.432 264.552 402.901 261.791 404.588 259.187 405.094ZM224.64 132.247 237.993 130.943 231.025 142.408Z" fill="#FF0000"/><path d="M0.275137 1.98098-1.97486 2.29348-1.43772 2.14012-3.68772 3.14012-3.33752 2.93997-5.52502 4.50247-5.27329 4.28921-7.39829 6.41421-7.22588 6.21764-9.28838 8.90514-9.20046 8.78108-11.2005 11.8436-11.1052 11.6815-12.9802 15.244-12.9224 15.1248-14.6724 19.0623-14.6108 18.9065-17.6733 27.719-17.6179 27.5302-19.9929 37.4052-19.9576 37.2203-21.4576 47.7203-21.4402 47.5408-22.0027 58.4158-22.0027 58.2092-21.4402 69.0842-21.461 68.8816-19.836 79.3816-19.8737 79.1966-17.3737 89.0716-17.4317 88.8822-14.2442 97.6947-14.3247 97.5039-12.4497 101.379-12.493 101.294-10.5555 104.857-10.6433 104.711-8.58078 107.836-8.71356 107.657-6.52606 110.282-6.68925 110.108-4.43925 112.233-4.69278 112.03-2.38028 113.593-2.70618 113.414-0.393678 114.414-0.926596 114.267 1.49932 114.586 4.27692 115.098 7.08805 116.769 9.67804 119.219 12.0972 122.378 14.3907 126.244 16.5163 130.688 18.5635 135.678 20.4115 141.223 22.1207 147.236 23.7074 153.646 26.168 167.464 27.8084 182.227 28.3764 197.437 27.8087 212.639 26.2949 227.399 23.899 241.144 22.4405 247.549 20.7924 253.571 19.0117 259.103 17.0926 264.093 14.975 268.659 11.6596 273.058 8.46521 270.651 11.6528 266.421 11.4356 266.784 13.4356 262.471 13.3833 262.595 15.2583 257.72 15.2212 257.825 16.9712 252.387 16.9459 252.472 18.5709 246.535 18.5499 246.618 19.9874 240.306 19.9672 240.407 22.3422 226.782 22.3229 226.921 23.8229 212.296 23.8139 212.425 24.3764 197.363 24.3764 197.512 23.8139 182.45 23.8247 182.596 22.1997 167.971 22.2185 168.101 19.781 154.413 19.8086 154.543 18.2461 148.231 18.2637 148.297 16.5762 142.359 16.6026 142.445 14.7901 137.007 14.8372 137.134 12.8372 132.259 12.8832 132.363 10.8207 128.05 10.9049 128.208 8.71739 124.52 8.84974 124.716 6.59974 121.779 6.8131 122.015 4.5006 119.828 4.85285 120.094 2.54035 118.719 3.20017 118.967 0.82517 118.529 0.926596 118.545-1.72513 118.196-4.4651 117.012-7.06726 115.253-9.52253 112.935-11.8578 110.132-14.0287 106.843-16.0296 103.164-17.9705 99.1528-21.227 90.1495-23.7745 80.0867-25.4296 69.3926-26.0027 58.3125-25.4302 47.244-23.9041 36.5614-21.484 26.499-18.3617 17.5143-16.5507 13.4397-14.601 9.73522-12.5079 6.53022-10.3194 3.67843-7.98467 1.34374-5.49752-0.432793-2.80452-1.62968-0.275137-1.98098ZM15.4372 275.188 2.375 278.25 7.76249 265.963Z" fill="#FF0000" transform="matrix(-1 -8.74228e-08 -8.74228e-08 1 334.336 131)"/><path d="M684.136 402.005 692.514 402.576 700.944 404.249 709.218 406.943 717.29 410.531 725.019 415.066 732.481 420.295 739.491 426.35 746.041 432.963 752.086 440.153 757.558 447.916 762.331 456.062 766.407 464.596 769.658 473.394 772.082 482.451 773.616 491.655 774.122 500.827 774.622 509.89 774.598 509.671 776.098 518.671 776.057 518.483 778.432 527.358 778.378 527.186 781.565 535.874 781.492 535.701 785.492 544.076 785.413 543.926 790.101 551.926 790.012 551.788 795.324 559.35 795.218 559.213 801.156 566.275 801.053 566.162 807.49 572.724 807.362 572.605 814.237 578.48 814.095 578.369 821.407 583.556 821.252 583.456 828.814 587.831 828.625 587.735 836.5 591.235 836.307 591.161 844.369 593.786 844.087 593.716 850.583 594.826 849.909 598.769 843.269 597.634 834.97 594.932 826.903 591.347 819.168 586.872 811.707 581.579 804.696 575.588 798.143 568.908 792.101 561.721 786.691 554.02 781.919 545.876 777.842 537.34 774.591 528.479 772.168 519.424 770.634 510.22 770.128 501.048 769.628 491.985 769.652 492.204 768.152 483.204 768.193 483.392 765.818 474.517 765.874 474.693 762.687 466.068 762.758 466.237 758.758 457.862 758.837 458.011 754.149 450.011 754.24 450.152 748.865 442.527 748.969 442.662 743.032 435.6 743.141 435.72 736.704 429.22 736.818 429.326 729.943 423.389 730.102 423.513 722.79 418.388 722.925 418.475 715.363 414.037 715.563 414.14 707.688 410.64 707.881 410.714 699.818 408.089 700.048 408.149 691.861 406.524 692.114 406.558 683.864 405.995ZM848.904 590.617 860.188 597.875 847.611 602.547Z" fill="#FF0000"/><path d="M0.0601232-1.9991 8.42827-1.74742 16.5386-1.05044 24.1615 0.0294681 31.056 1.49775 36.8808 3.22599 39.3965 4.15284 41.5766 5.17473 43.4247 6.31202 44.9228 7.57364 46.0371 9.15214 46.3778 10.5149 46.6278 11.5149 46.3214 10.8466 47.0714 11.9091 46.7258 11.5327 47.9133 12.5327 47.6732 12.3592 49.2982 13.3592 49.0989 13.2516 51.0989 14.1891 50.9414 14.1233 53.3164 14.9983 53.1939 14.9576 58.8814 16.6451 58.7328 16.6072 65.4203 18.0447 65.2805 18.0198 72.7805 19.0823 72.6462 19.0679 78.97 19.5315 78.6775 23.5208 72.2864 23.0522 64.6491 21.9703 57.8172 20.5017 51.9942 18.774 49.4785 17.8472 47.2984 16.8253 45.4503 15.688 43.9521 14.4264 42.8379 12.8479 42.4972 11.4851 42.2472 10.4851 42.5536 11.1534 41.8036 10.0909 42.1492 10.4673 40.9617 9.46732 41.2018 9.64082 39.5768 8.64082 39.7761 8.74842 37.7761 7.81092 37.9336 7.87669 35.5586 7.00169 35.6811 7.04238 29.9936 5.35488 30.1459 5.39363 23.3959 3.95613 23.532 3.98023 16.032 2.91773 16.1413 2.93016 8.14126 2.24266 8.25238 2.2491-0.0601232 1.9991ZM77.1103 15.4381 88.8125 22 76.5417 27.4246Z" fill="#FF0000" transform="matrix(-4.37114e-08 1 1 4.37114e-08 886 477)"/><path d="M0.0799361-1.9984 4.84846-1.80766 9.66296-1.22211 19.2203 1.02291 28.5885 4.68035 37.6671 9.53933 46.4634 15.5948 54.8593 22.6549 62.8004 30.7231 70.1539 39.6613 76.9955 49.3537 83.073 59.7361 88.5153 70.6838 93.0746 82.1456 96.7462 93.9833 99.4696 106.08 101.181 118.442 101.289 120.794 97.2934 120.977 97.1896 118.717 97.2064 118.899 95.5189 106.712 95.5488 106.877 92.8613 94.9393 92.9023 95.0925 89.2773 83.405 89.3291 83.5517 84.8291 72.2392 84.8966 72.3903 79.5216 61.5778 79.5865 61.6979 73.5865 51.4479 73.6786 51.5909 66.9286 42.0284 67.018 42.1456 59.768 33.3331 59.8871 33.4654 52.0746 25.5279 52.2128 25.6557 43.9628 18.7182 44.1159 18.8349 35.4909 12.8974 35.6812 13.0133 26.8062 8.26333 27.0226 8.36305 17.8976 4.80055 18.1676 4.88451 8.85515 2.69701 9.07104 2.73537 4.44604 2.17287 4.60756 2.1859-0.0799361 1.9984ZM105.193 118.612 99.75 130.875 93.2059 119.163Z" fill="#FF0000" transform="matrix(1 0 0 -1 956 597.854)"/><path d="M0.129142-1.99583 10.8823-1.30004 21.685 0.809368 32.2749 4.19049 42.5933 8.77646 52.573 14.4973 62.0964 21.1637 71.1021 28.7741 79.5326 37.1413 87.2689 46.2726 94.2401 56.0956 100.388 66.4273 105.591 77.2128 109.78 88.3849 112.897 99.8354 114.897 112.966 110.943 113.568 108.96 100.551 109.008 100.775 105.945 89.5253 106.002 89.7022 101.877 78.7022 101.949 78.8689 96.8236 68.2439 96.9063 68.3978 90.8438 58.2103 90.9315 58.345 84.0565 48.6575 84.1615 48.7928 76.5365 39.7928 76.6536 39.9195 68.3411 31.6695 68.4591 31.7776 59.5841 24.2776 59.7281 24.3885 50.3531 17.826 50.5053 17.9226 40.6928 12.2976 40.8752 12.3901 30.7502 7.89012 30.9542 7.96775 20.5792 4.65525 20.8042 4.71293 10.2417 2.65043 10.4959 2.68333-0.129142 1.99583ZM118.794 110.922 113.5 123.25 106.814 111.618Z" fill="#FF0000" transform="matrix(-4.37114e-08 1 1 4.37114e-08 192 487)"/><rect x="0" y="251" width="1206" height="265" stroke="#00B050" stroke-width="4" stroke-miterlimit="8" fill="none"/><text font-family="Calibri,Calibri_MSFontService,sans-serif" font-weight="400" font-size="24" transform="translate(9.6 278)">The SONAR-<tspan x="118.333" y="0">netCDF4</tspan><tspan x="0" y="29">convention</tspan></text><path d="M0.126729-1.99598 4.17631-1.73886 8.28193-1.01045 12.3557 0.237966 16.4087 1.87223 20.4543 4.02553 24.3338 6.54721 28.1863 9.43661 32.0607 12.7299 39.3893 20.3771 46.3772 29.3343 53.0295 39.4711 59.1621 50.7247 64.8394 62.9625 69.9446 75.9462 74.4813 89.7452 78.26 104.104 81.3448 118.962 83.6118 134.201 84.9971 149.628 85.499 165.186 85.999 180.686 85.992 180.571 87.367 195.884 87.3532 195.768 89.6032 210.893 89.5832 210.781 92.6457 225.531 92.6216 225.428 96.3716 239.678 96.34 239.571 100.778 253.258 100.736 253.143 105.799 266.018 105.752 265.908 111.377 278.033 111.315 277.91 117.44 289.035 117.364 288.91 123.864 298.91 123.764 298.77 130.639 307.582 130.5 307.422 137.75 314.922 137.62 314.799 141.308 317.987 141.2 317.9 144.95 320.712 144.84 320.636 148.59 323.073 148.44 322.984 152.315 325.047 151.998 324.912 157.726 326.79 156.479 330.591 150.588 328.659 146.483 326.474 142.604 323.953 138.745 321.058 134.937 317.767 127.551 310.126 120.558 301.162 113.971 291.029 107.777 279.779 102.098 267.537 96.9913 254.55 92.5176 240.751 88.74 226.396 85.6552 211.538 83.3882 196.299 82.0029 180.872 81.501 165.314 81.001 149.814 81.008 149.929 79.633 134.616 79.6468 134.732 77.3968 119.607 77.4168 119.719 74.3543 104.969 74.3783 105.071 70.6283 90.8215 70.6625 90.9371 66.1625 77.2496 66.2012 77.3569 61.1387 64.4819 61.1857 64.5917 55.5607 52.4667 55.6188 52.582 49.5563 41.457 49.6404 41.5973 43.0779 31.5973 43.1731 31.7302 36.2981 22.9177 36.431 23.0713 29.2435 15.5713 29.3922 15.7114 25.6422 12.5239 25.7375 12.6 21.9875 9.7875 22.0975 9.86439 18.3475 7.42689 18.4978 7.51549 14.6228 5.45299 14.8146 5.54238 10.9396 3.97988 11.1015 4.03722 7.2265 2.84972 7.46312 2.90675 3.58812 2.21925 3.81077 2.24598-0.126729 1.99598ZM156.221 322.428 166.937 330.5 154.05 334.23Z" fill="#FF0000" transform="matrix(-4.37114e-08 -1 -1 4.37114e-08 616.445 330.915)"/></g></svg>